<?xml version="1.0" standalone="no"?>
<!DOCTYPE svg PUBLIC "-//W3C//DTD SVG 20010904//EN"
 "http://www.w3.org/TR/2001/REC-SVG-20010904/DTD/svg10.dtd">
<svg version="1.0" xmlns="http://www.w3.org/2000/svg"
 width="47.000000pt" height="47.000000pt" viewBox="0 0 47.000000 47.000000"
 preserveAspectRatio="xMidYMid meet">

<g transform="translate(0.000000,47.000000) scale(0.100000,-0.100000)"
fill="#000000" stroke="none">
<path d="M207 414 c-4 -4 2 -17 13 -29 18 -19 19 -24 6 -34 -11 -9 -19 -6 -39
21 -14 18 -29 29 -33 26 -3 -4 8 -19 25 -34 30 -25 31 -28 16 -43 -15 -15 -18
-14 -40 12 -24 27 -45 35 -45 18 0 -5 8 -12 18 -15 10 -4 34 -22 53 -42 34
-35 34 -35 40 -152 l5 -117 2 114 c2 106 0 116 -20 139 l-23 23 53 50 c50 49
63 69 42 69 -5 0 -10 -6 -10 -14 0 -26 -22 -30 -39 -7 -9 12 -20 19 -24 15z"/>
<path d="M288 365 c-16 -18 -28 -45 -28 -61 -1 -28 -1 -28 -15 -10 -8 11 -18
17 -21 13 -4 -4 3 -14 14 -24 20 -16 22 -30 25 -138 3 -114 3 -112 5 37 l2
156 30 25 c29 25 37 38 23 36 -5 0 -20 -15 -35 -34z"/>
<path d="M337 337 c-14 -18 -18 -20 -26 -7 -5 8 -14 11 -18 6 -4 -4 7 -20 25
-34 26 -21 30 -30 21 -39 -10 -10 -15 -9 -25 5 -7 9 -16 14 -20 9 -4 -4 1 -13
11 -21 12 -9 15 -15 7 -20 -8 -5 -11 -38 -10 -94 0 -48 3 -71 5 -52 3 21 13
42 26 52 12 9 18 20 14 24 -4 4 -14 -1 -22 -12 -11 -15 -14 -16 -15 -4 0 9 18
33 40 55 21 21 37 42 34 47 -3 5 -21 -8 -40 -29 -19 -22 -33 -32 -34 -23 0 8
19 33 42 57 23 23 39 46 35 50 -4 3 -13 -1 -20 -11 -12 -17 -14 -17 -27 -1
-12 15 -11 19 9 35 14 10 19 20 14 23 -6 4 -18 -3 -26 -16z"/>
<path d="M100 317 c0 -2 18 -23 40 -47 22 -24 40 -50 40 -59 0 -10 -14 -1 -40
25 -35 38 -50 45 -50 22 0 -4 6 -8 13 -8 23 0 77 -64 77 -90 -1 -24 -2 -24
-30 10 -17 19 -30 28 -30 21 0 -7 13 -23 29 -37 21 -17 31 -36 34 -62 2 -20 4
2 5 50 2 86 2 87 -35 132 -33 38 -53 55 -53 43z"/>
</g>
</svg>
