<?xml version="1.0" standalone="no"?>
<!DOCTYPE svg PUBLIC "-//W3C//DTD SVG 20010904//EN"
 "http://www.w3.org/TR/2001/REC-SVG-20010904/DTD/svg10.dtd">
<svg version="1.0" xmlns="http://www.w3.org/2000/svg"
 width="512.000000pt" height="512.000000pt" viewBox="0 0 512.000000 512.000000"
 preserveAspectRatio="xMidYMid meet">

<g transform="translate(0.000000,512.000000) scale(0.100000,-0.100000)"
fill="#000000" stroke="none">
<path d="M3291 3790 c-601 -61 -1021 -550 -1092 -1275 -14 -140 -6 -373 16
-520 17 -111 75 -359 82 -352 2 3 -3 45 -11 93 -33 197 -40 289 -41 504 0 249
11 349 57 535 137 547 493 886 1001 954 185 25 434 6 653 -49 65 -16 119 -28
121 -26 2 2 -60 25 -138 50 -222 73 -459 104 -648 86z"/>
<path d="M4246 3734 c-70 -97 -85 -198 -41 -291 31 -67 39 -68 14 -3 -35 92
-19 174 51 253 38 44 59 46 153 17 51 -16 73 -30 110 -68 24 -27 52 -63 61
-80 9 -18 18 -32 20 -32 11 0 -21 87 -48 132 -40 69 -110 106 -213 115 l-71 6
-36 -49z"/>
<path d="M4670 3577 c0 -3 30 -24 67 -48 184 -120 248 -246 272 -544 7 -77 21
-175 31 -217 36 -139 24 -195 -46 -218 -40 -14 -77 -9 -184 25 -41 13 -143 33
-225 44 -162 23 -237 41 -300 73 -105 53 -137 99 -159 230 l-14 83 -1 -73 c-1
-97 14 -152 56 -202 64 -74 136 -101 356 -130 78 -11 198 -33 267 -50 196 -47
286 -38 309 33 13 38 8 64 -30 179 -15 46 -18 84 -18 210 1 125 -3 167 -20
231 -44 165 -131 280 -254 337 -66 30 -107 44 -107 37z"/>
<path d="M3562 2819 c-24 -130 -11 -230 49 -360 55 -120 125 -170 379 -274
151 -62 246 -112 270 -143 24 -29 25 -58 6 -130 -14 -50 -13 -55 5 -73 52 -52
198 22 229 117 22 65 -8 161 -67 215 -41 38 -153 109 -147 94 3 -7 41 -43 84
-80 96 -82 113 -107 113 -161 0 -80 -84 -169 -155 -162 l-33 3 -1 80 c0 44 -6
90 -13 103 -15 28 -76 67 -248 160 -172 92 -234 133 -300 195 -102 97 -143
196 -152 367 l-6 115 -13 -66z"/>
<path d="M4485 2507 c-37 -74 -105 -146 -171 -181 -38 -20 -42 -25 -19 -20 99
22 184 97 210 188 23 79 15 83 -20 13z"/>
<path d="M2906 2095 c4 -16 31 -120 61 -230 121 -452 117 -434 118 -540 0 -91
-3 -107 -32 -174 -31 -70 -32 -76 -16 -93 9 -10 35 -23 57 -30 50 -14 342 -16
851 -6 325 6 371 9 380 23 8 13 2 24 -29 51 -39 34 -106 63 -206 90 -50 14
-371 32 -588 34 l-74 0 7 64 c7 67 -2 107 -16 70 -13 -33 -10 -144 4 -149 6
-2 107 -11 222 -20 116 -9 262 -22 325 -30 173 -21 299 -65 258 -92 -32 -20
-1117 -8 -1138 13 -7 7 -6 29 5 69 31 119 14 318 -45 540 -46 174 -168 522
-144 410z"/>
<path d="M4059 1918 c-183 -258 -265 -338 -480 -468 -46 -27 -79 -50 -74 -50
6 0 56 22 112 50 180 88 286 183 399 355 57 88 129 215 121 215 -3 0 -38 -46
-78 -102z"/>
<path d="M2301 1614 c0 -11 3 -14 6 -6 3 7 2 16 -1 19 -3 4 -6 -2 -5 -13z"/>
<path d="M2198 1513 c6 -2 18 -2 25 0 6 3 1 5 -13 5 -14 0 -19 -2 -12 -5z"/>
<path d="M2045 1499 c-38 -5 -279 -34 -535 -64 -788 -95 -1412 -181 -1474
-205 -41 -15 -35 -47 12 -56 20 -4 327 2 682 15 950 33 1233 40 1560 41 267 0
621 -12 725 -24 90 -11 -73 25 -200 44 -235 35 -398 43 -805 43 -434 0 -630
-9 -1720 -78 -57 -3 -80 -2 -69 5 25 15 217 46 589 95 845 111 966 128 1150
156 107 16 200 31 205 33 16 7 -45 4 -120 -5z"/>
</g>
</svg>
